<svg xmlns="http://www.w3.org/2000/svg" viewBox="0 0 146.12 146.12"><defs><style>.cls-1{fill:blue;}.cls-2{fill:#fff;}</style></defs><g id="Шар_2" data-name="Шар 2"><g id="Слой_1" data-name="Слой 1"><circle class="cls-1" cx="73.06" cy="73.06" r="73.06"/><path class="cls-2" d="M39.14,100.85,38,86.72a20.81,20.81,0,0,0-1-5.52,6.36,6.36,0,0,0-2.54-3.3,9,9,0,0,0-5-1H22.15V70.36h6.91c3,0,5.11-.79,6.43-2.38a10.29,10.29,0,0,0,2-6.75q0-4.6-2.34-7c-1.57-1.58-3.93-2.38-7.11-2.38H22.15V45.27h7.07A18.63,18.63,0,0,1,37,47a12.16,12.16,0,0,1,5.32,5,17.24,17.24,0,0,1,2,8.7,18.73,18.73,0,0,1-1.47,8,11.56,11.56,0,0,1-3.93,4.77,9.87,9.87,0,0,1,3.89,3.93,14.49,14.49,0,0,1,1.74,6.23l1.35,17.23Z"/><path class="cls-2" d="M49.76,100.85V45.27h28.9v7.07H57V69.65H71.2v7.06H57v17H78.66v7.14Z"/><path class="cls-2" d="M98.38,100.85l-21-51V45.27h5.8L101,89.1l12.61-28.9.78-1.84V76.24l-10.73,24.61Zm18.44,0V45.27H124v55.58Z"/></g></g></svg>