<svg width="16" height="15" viewBox="0 0 16 15" fill="none" xmlns="http://www.w3.org/2000/svg">
<path fill-rule="evenodd" clip-rule="evenodd" d="M1.50108 10.0949C2.16012 9.59876 3.14869 9.26799 3.97249 9.59875C4.63153 9.92951 4.96105 10.7564 5.45533 11.2526C5.62009 11.5833 5.94961 11.5833 6.27913 11.4179C8.58578 10.4257 10.3981 8.93724 11.7162 6.78729C11.881 6.45653 11.881 6.12576 11.5515 5.795C11.2219 5.29886 10.7277 4.80272 10.5629 4.1412C10.3981 3.47968 10.7277 2.81817 11.0572 2.32203C11.3867 1.66051 11.7162 0.668224 12.3753 0.172083C13.0343 -0.158678 13.8581 0.00669734 14.5172 0.502838C15.5057 1.32974 16 2.65278 16 3.81044C16 4.1412 16 4.47198 15.8352 4.80274C15.6705 5.62964 15.1762 6.45653 14.8467 7.11805C14.5172 7.61419 14.1876 8.27571 13.8581 8.77185C12.54 10.4257 11.0572 11.9141 9.24482 13.0718C8.42102 13.5679 7.43246 14.064 6.44389 14.3948C5.29057 14.7256 4.30201 15.2217 3.14869 14.8909C1.8306 14.7255 0.677277 13.8986 0.182996 12.5756C0.0182352 12.2448 0.0182343 11.7487 0.0182343 11.4179C-0.146526 10.9218 0.842039 10.591 1.50108 10.0949Z" fill="#2853CE"/>
</svg>
