<svg width="30" height="30" viewBox="0 0 30 30" fill="none" xmlns="http://www.w3.org/2000/svg">
<path d="M22.7685 5.53662C21.7798 5.53662 21.0735 6.24284 21.0735 7.23154C21.0735 8.22024 21.7798 8.92645 22.7685 8.92645C23.7572 8.92645 24.4634 8.22024 24.4634 7.23154C24.4634 6.24284 23.7572 5.53662 22.7685 5.53662Z" fill="white"/>
<path d="M15.1413 7.79663C11.1865 7.79663 7.93793 11.0452 7.93793 15C7.93793 18.9548 11.1865 22.2034 15.1413 22.2034C19.0961 22.2034 22.3447 18.9548 22.3447 15C22.3447 10.904 19.0961 7.79663 15.1413 7.79663ZM15.1413 19.5198C12.5989 19.5198 10.4803 17.4012 10.4803 14.8588C10.4803 12.3164 12.5989 10.1978 15.1413 10.1978C17.6837 10.1978 19.8023 12.3164 19.8023 14.8588C19.6611 17.5424 17.6837 19.5198 15.1413 19.5198Z" fill="white"/>
<path d="M20.791 29.5481H9.06788C4.26562 29.5481 0.310822 25.5933 0.310822 20.791V9.06785C0.310822 4.26559 4.26562 0.310791 9.06788 0.310791H20.791C25.5933 0.310791 29.5481 4.26559 29.5481 9.06785V20.791C29.6894 25.5933 25.7345 29.5481 20.791 29.5481ZM9.06788 2.99441C5.67805 2.99441 2.99444 5.67802 2.99444 9.06785V20.791C2.99444 24.1808 5.67805 26.8645 9.06788 26.8645H20.791C24.1809 26.8645 26.8645 24.1808 26.8645 20.791V9.06785C26.8645 5.67802 24.1809 2.99441 20.791 2.99441H9.06788Z" fill="white"/>
</svg>
