<svg xmlns="http://www.w3.org/2000/svg" viewBox="0 0 120.84 42.78"><defs><style>.cls-1{fill:#fff;}.cls-2{fill:#2853ce;}</style></defs><g id="Шар_2" data-name="Шар 2"><g id="Слой_1" data-name="Слой 1"><path class="cls-1" d="M1.93,36.32A1.92,1.92,0,0,1,.05,34L5.93,7.85H6.7l1.08,5a13.15,13.15,0,0,1,0,5.62L4.14,34.81a1.93,1.93,0,0,1-1.88,1.51Zm13.3-1.52-.49-2.26A2,2,0,0,0,12.85,31h-3a1.93,1.93,0,0,1-1.89-2.33L8,28.31a1.93,1.93,0,0,1,1.88-1.53h1a1.93,1.93,0,0,0,1.89-2.34L8.47,5A1.93,1.93,0,0,1,10.35,2.6h.39a1.93,1.93,0,0,1,1.88,1.51L19.36,34a1.92,1.92,0,0,1-1.88,2.35h-.37A1.92,1.92,0,0,1,15.23,34.8Z"/><path class="cls-1" d="M23.07,34.13V4.79a2.2,2.2,0,0,1,2.2-2.19h0a2.19,2.19,0,0,1,2.19,2.19V34.13a2.19,2.19,0,0,1-2.19,2.19h0A2.2,2.2,0,0,1,23.07,34.13Zm6.75-.05v0a2.13,2.13,0,0,1,2-2.13l.73-.05a8.16,8.16,0,0,0,2.53-.61,4,4,0,0,0,1.85-1.54,5.15,5.15,0,0,0,.7-2.89V12.09A4.91,4.91,0,0,0,37,9.54,4.25,4.25,0,0,0,35.38,8a7.52,7.52,0,0,0-2.45-.82c-.38-.06-.77-.12-1.18-.15a2.15,2.15,0,0,1-1.93-2.13h0a2.16,2.16,0,0,1,2.39-2.13,17.35,17.35,0,0,1,2.52.46,11,11,0,0,1,3.83,1.76,8.15,8.15,0,0,1,2.51,3A9.34,9.34,0,0,1,42,12.09V26.83a9.73,9.73,0,0,1-1.13,5,7.63,7.63,0,0,1-2.94,2.87A12.72,12.72,0,0,1,34,36c-.62.09-1.23.17-1.83.23A2.14,2.14,0,0,1,29.82,34.08Z"/><path class="cls-2" d="M46.25,41.09V1.69A2,2,0,0,1,48.4,0h0a2,2,0,0,1,2.15,1.69v39.4a2,2,0,0,1-2.15,1.69h0A2,2,0,0,1,46.25,41.09Z"/><path class="cls-1" d="M66,36.54a2,2,0,0,1-2-1.81L63.45,28a12.73,12.73,0,0,0-.63-3.35,3.82,3.82,0,0,0-1.54-2,5.45,5.45,0,0,0-3-.63H55.83a2,2,0,0,1-2-2h0a2,2,0,0,1,2-2h2.22A4.8,4.8,0,0,0,62,16.6a6.26,6.26,0,0,0,1.21-4.1,5.85,5.85,0,0,0-1.42-4.24,5.84,5.84,0,0,0-4.32-1.44H55.83a2,2,0,0,1-2-2v0a2,2,0,0,1,2-2h2.32a11.17,11.17,0,0,1,4.74,1,7.32,7.32,0,0,1,3.23,3,10.48,10.48,0,0,1,1.18,5.28A11.44,11.44,0,0,1,66.41,17a8.1,8.1,0,0,1-1,1.62,1.93,1.93,0,0,0,.17,2.5,7.26,7.26,0,0,1,.82,1.16,8.89,8.89,0,0,1,1.06,3.78l.65,8.32a2,2,0,0,1-2,2.13Z"/><path class="cls-1" d="M71.49,34.4V5a2.14,2.14,0,0,1,2.14-2.14H86.88A2.14,2.14,0,0,1,89,5h0a2.15,2.15,0,0,1-2.15,2.15H78a2.14,2.14,0,0,0-2.14,2.14v6.22A2.14,2.14,0,0,0,78,17.61h4.34a2.14,2.14,0,0,1,2.14,2.14h0a2.14,2.14,0,0,1-2.14,2.15H78A2.14,2.14,0,0,0,75.88,24v6A2.14,2.14,0,0,0,78,32.21h8.86A2.14,2.14,0,0,1,89,34.35v0a2.14,2.14,0,0,1-2.15,2.14H73.63A2.14,2.14,0,0,1,71.49,34.4Z"/><path class="cls-1" d="M103,35.23,90.75,6a2.1,2.1,0,0,1-.16-.82V5a2.13,2.13,0,0,1,2.13-2.13h0a2.11,2.11,0,0,1,2,1.32l6.65,16.16a4.2,4.2,0,0,0,7.73.1l3.77-8.52h.48v9.28a2.14,2.14,0,0,1-.18.86l-5.85,13.25a2.15,2.15,0,0,1-2,1.27h-.41A2.14,2.14,0,0,1,103,35.23Zm13.55-.82V5a2.14,2.14,0,0,1,2.14-2.13h.06A2.14,2.14,0,0,1,120.84,5V34.41a2.13,2.13,0,0,1-2.14,2.13h-.06A2.13,2.13,0,0,1,116.5,34.41Z"/></g></g></svg>