<svg width="65" height="65" viewBox="0 0 65 65" fill="none" xmlns="http://www.w3.org/2000/svg">
<circle cx="32.5" cy="32.5" r="32.5" fill="#2853CE"/>
<path d="M46.4461 18H17.5535C17.2476 18 17 18.248 17 18.5535V47.4465C17 47.752 17.2476 48 17.5535 48H28.6008C28.9067 48 29.1543 47.752 29.1543 47.4465C29.1543 47.1409 28.9067 46.8929 28.6008 46.8929H18.1071V38.3397H23.7726C24.0785 38.3397 24.3261 38.0918 24.3261 37.7862C24.3261 37.4807 24.0785 37.2327 23.7726 37.2327H18.1071V19.1071H32.1843V27.8425C32.1843 28.1481 32.4319 28.3961 32.7378 28.3961C33.0438 28.3961 33.2914 28.1481 33.2914 27.8425V19.1071H45.8926V32.7845H28.0262C27.7203 32.7845 27.4727 33.0325 27.4727 33.338C27.4727 33.6436 27.7203 33.8916 28.0262 33.8916H45.8926V46.8926H37.8572L33.7132 40.8583C33.5405 40.6066 33.1954 40.5421 32.9438 40.7155C32.6917 40.8886 32.6279 41.2329 32.801 41.4853L37.11 47.7594C37.2133 47.9096 37.3838 47.9993 37.5661 47.9993H46.4465C46.7524 47.9993 47 47.7513 47 47.4457V18.5535C46.9996 18.248 46.752 18 46.4461 18Z" fill="white"/>
</svg>
