<svg width="30" height="30" viewBox="0 0 30 30" fill="none" xmlns="http://www.w3.org/2000/svg">
<path d="M29.4461 0H0.553526C0.247611 0 0 0.247983 0 0.553533V29.4465C0 29.752 0.247611 30 0.553526 30H11.6008C11.9067 30 12.1543 29.752 12.1543 29.4465C12.1543 29.1409 11.9067 28.8929 11.6008 28.8929H1.10705V20.3397H6.77257C7.07849 20.3397 7.3261 20.0918 7.3261 19.7862C7.3261 19.4807 7.07849 19.2327 6.77257 19.2327H1.10705V1.10707H15.1843V9.84255C15.1843 10.1481 15.4319 10.3961 15.7378 10.3961C16.0438 10.3961 16.2914 10.1481 16.2914 9.84255V1.10707H28.8926V14.7845H11.0262C10.7203 14.7845 10.4727 15.0325 10.4727 15.338C10.4727 15.6436 10.7203 15.8916 11.0262 15.8916H28.8926V28.8926H20.8572L16.7132 22.8583C16.5405 22.6066 16.1954 22.5421 15.9438 22.7155C15.6917 22.8886 15.6279 23.2329 15.801 23.4853L20.11 29.7594C20.2133 29.9096 20.3838 29.9993 20.5661 29.9993H29.4465C29.7524 29.9993 30 29.7513 30 29.4457V0.553533C29.9996 0.247983 29.752 0 29.4461 0Z" fill="white"/>
</svg>
