<svg width="32" height="32" viewBox="0 0 32 32" fill="none" xmlns="http://www.w3.org/2000/svg">
<path d="M30.7264 20.4876H11.3134V1.07504C11.3134 0.745092 11.0464 0.478027 10.7164 0.478027H1.07462C0.744665 0.478027 0.4776 0.745092 0.4776 1.07504V21.0846V30.7268C0.4776 31.0567 0.744665 31.3238 1.07462 31.3238H30.7264C31.0559 31.3238 31.3234 31.0567 31.3234 30.7268V21.0846C31.3234 20.7546 31.0559 20.4876 30.7264 20.4876ZM10.1194 1.67206V20.4876H1.67163V16.4979H4.56874C4.89869 16.4979 5.16576 16.2309 5.16576 15.9009C5.16576 15.571 4.89869 15.3039 4.56874 15.3039H1.67163V11.4352H6.98188C7.31183 11.4352 7.57889 11.1682 7.57889 10.8382C7.57889 10.5083 7.31183 10.2412 6.98188 10.2412H1.67163V6.37255H4.56874C4.89869 6.37255 5.16576 6.10549 5.16576 5.77554C5.16576 5.44559 4.89869 5.17852 4.56874 5.17852H1.67163V1.67206H10.1194ZM30.1293 30.1298H1.67163V21.6816H30.1293V30.1298Z" fill="white"/>
</svg>
