<svg width="65" height="65" viewBox="0 0 65 65" fill="none" xmlns="http://www.w3.org/2000/svg">
<circle cx="32.5" cy="32.5" r="32.5" fill="#2853CE"/>
<path d="M47.7264 37.4876H28.3134V18.075C28.3134 17.7451 28.0464 17.478 27.7164 17.478H18.0746C17.7447 17.478 17.4776 17.7451 17.4776 18.075V38.0846V47.7268C17.4776 48.0567 17.7447 48.3238 18.0746 48.3238H47.7264C48.0559 48.3238 48.3234 48.0567 48.3234 47.7268V38.0846C48.3234 37.7546 48.0559 37.4876 47.7264 37.4876ZM27.1194 18.6721V37.4876H18.6716V33.4979H21.5687C21.8987 33.4979 22.1658 33.2309 22.1658 32.9009C22.1658 32.571 21.8987 32.3039 21.5687 32.3039H18.6716V28.4352H23.9819C24.3118 28.4352 24.5789 28.1682 24.5789 27.8382C24.5789 27.5083 24.3118 27.2412 23.9819 27.2412H18.6716V23.3726H21.5687C21.8987 23.3726 22.1658 23.1055 22.1658 22.7755C22.1658 22.4456 21.8987 22.1785 21.5687 22.1785H18.6716V18.6721H27.1194ZM47.1293 47.1298H18.6716V38.6816H47.1293V47.1298Z" fill="white"/>
<path d="M42.9041 45.4314C44.2971 45.4314 45.4302 44.2979 45.4302 42.9048C45.4302 41.5118 44.2967 40.3787 42.9041 40.3787C41.511 40.3787 40.3775 41.5118 40.3775 42.9048C40.3775 44.2979 41.511 45.4314 42.9041 45.4314ZM42.9041 41.5727C43.6384 41.5727 44.2362 42.1701 44.2362 42.9048C44.2362 43.6396 43.6384 44.2374 42.9041 44.2374C42.1693 44.2374 41.5715 43.6396 41.5715 42.9048C41.5715 42.1705 42.1693 41.5727 42.9041 41.5727Z" fill="white"/>
</svg>
