<svg width="32" height="27" viewBox="0 0 32 27" fill="none" xmlns="http://www.w3.org/2000/svg">
<path d="M18.0515 4.49241L18.0504 4.49287C15.6073 5.51608 10.7502 7.62151 3.47012 10.7831C2.85801 11.0351 2.3253 11.3058 1.91995 11.6089C1.53688 11.8954 1.10104 12.3352 1.01524 12.9644L1.01409 12.9729L1.01308 12.9813C0.954077 13.4769 1.09722 13.9263 1.38939 14.2859C1.65067 14.6075 1.99728 14.8166 2.29912 14.9627C2.75564 15.1838 3.36489 15.3724 3.94776 15.5529C4.10401 15.6013 4.25837 15.6491 4.40738 15.6968C5.06612 15.9092 5.8383 16.14 6.56707 16.3216C7.27336 16.4975 8.01617 16.6473 8.58304 16.6607C9.68765 16.6887 10.7897 16.2352 11.8778 15.4878C14.2109 13.911 16.1537 12.6017 17.7086 11.5603C17.0183 12.2077 16.3542 12.8245 15.843 13.2992C15.3371 13.7691 14.981 14.0999 14.8975 14.1834L14.8923 14.1885L14.8873 14.1937C14.724 14.3617 14.5556 14.5242 14.3814 14.6911C14.3635 14.7083 14.3454 14.7256 14.3273 14.7429C14.1734 14.8901 14.0126 15.044 13.8629 15.1955C13.5439 15.5181 13.172 15.9284 12.9583 16.4139C12.7142 16.9684 12.6862 17.5998 13.0178 18.2312C13.3109 18.7893 13.8426 19.2634 14.5133 19.7032C15.4432 20.3172 16.2269 20.8515 17.0051 21.3822C17.9577 22.0317 18.9021 22.6756 20.0967 23.4533C20.3637 23.6286 20.6173 23.809 20.8816 23.997C20.943 24.0407 21.0051 24.0848 21.068 24.1294C21.392 24.3589 21.7372 24.5986 22.0945 24.8074C22.8151 25.2285 23.6677 25.5743 24.6862 25.487L24.6862 25.487L24.6942 25.4863C26.0754 25.3568 26.9192 24.0833 27.2911 22.1148L27.2911 22.1146C28.1229 17.706 29.7528 8.08097 30.1349 4.06512C30.19 3.60115 30.1353 3.06152 30.0795 2.78265L30.0778 2.77426C30.0316 2.54271 29.9165 1.96612 29.3851 1.52333L29.3774 1.51692L29.3696 1.51068C28.7782 1.03753 28.0229 1 27.7662 1H27.7551L27.744 1.00025C27.0988 1.01458 26.3669 1.19725 25.0093 1.68994C23.6352 2.18866 21.5158 3.04637 18.0515 4.49241Z" stroke="white" stroke-width="2"/>
</svg>
