<svg width="30" height="31" viewBox="0 0 30 31" fill="none" xmlns="http://www.w3.org/2000/svg">
<path d="M0.181396 30.4368L2.34435 22.5059C1.19078 20.343 0.46979 17.8916 0.46979 15.4403C0.46979 7.36526 7.10285 0.732178 15.1779 0.732178C23.2529 0.732178 29.886 7.36526 29.886 15.4403C29.886 23.5153 23.2529 30.1484 15.1779 30.1484C12.7265 30.1484 10.4194 29.5716 8.25643 28.418L0.181396 30.4368ZM8.54482 25.3899L8.97741 25.6783C10.852 26.8318 12.8707 27.4086 15.0337 27.4086C21.5225 27.4086 26.8578 22.0733 26.8578 15.5845C26.8578 9.09561 21.5225 3.76032 15.0337 3.76032C8.54482 3.76032 3.20953 9.09561 3.20953 15.5845C3.20953 17.7474 3.78632 19.9104 4.9399 21.7849L5.22829 22.3617L4.07471 26.8318L8.54482 25.3899Z" fill="white"/>
<path fill-rule="evenodd" clip-rule="evenodd" d="M20.6574 17.4584C20.0806 17.0258 19.2154 16.7374 18.4944 17.0258C17.9176 17.3142 17.6292 18.0351 17.1966 18.4677C17.0524 18.7561 16.764 18.7561 16.4756 18.6119C14.4569 17.7468 12.8707 16.449 11.7171 14.5744C11.5729 14.286 11.5729 13.9976 11.8613 13.7092C12.1497 13.2766 12.5823 12.844 12.7265 12.2673C12.8707 11.6905 12.5823 11.1137 12.2939 10.6811C12.0055 10.1043 11.7171 9.23913 11.1404 8.80654C10.5636 8.51814 9.84258 8.66233 9.26579 9.09492C8.40061 9.81591 7.96802 10.9695 7.96802 11.9789C7.96802 12.2673 7.96802 12.5557 8.11222 12.8441C8.25641 13.565 8.689 14.286 8.9774 14.8628C9.26579 15.2954 9.55418 15.8722 9.84258 16.3048C10.9962 17.7467 12.2939 19.0445 13.8801 20.0539C14.6011 20.4865 15.4663 20.9191 16.3314 21.2075C17.3408 21.4959 18.206 21.9285 19.2154 21.6401C20.369 21.4959 21.3783 20.7749 21.8109 19.6213C21.9551 19.3329 21.9551 18.9003 21.9551 18.6119C22.0993 18.1793 21.2341 17.8909 20.6574 17.4584Z" fill="white"/>
</svg>
